<svg width="157" height="158" viewBox="0 0 157 158" fill="none" xmlns="http://www.w3.org/2000/svg">
<path d="M83.5512 80.2013C79.5358 80.2013 75.5167 80.1975 71.5013 80.2051C70.9363 80.2051 70.1565 79.9411 70.3449 81.0611C70.9551 84.708 72.4317 87.8231 75.9687 89.4108C79.3851 90.9419 82.7865 90.8401 85.9657 88.6113C87.3594 87.6345 88.158 86.2203 88.8021 84.7155C89.1976 83.7916 89.6647 83.339 90.7683 83.5426C92.3089 83.8255 93.8797 83.9499 95.4429 84.0782C96.539 84.1687 96.9458 84.3987 96.4976 85.6847C94.1773 92.3184 89.3633 95.6824 82.5794 96.2481C75.6297 96.8289 69.4107 95.2374 65.369 88.9356C62.4347 84.3535 62.3292 79.2358 63.0788 74.0352C65.1091 59.9381 80.3683 57.0493 88.9753 62.1594C94.0869 65.1953 96.3808 69.9434 96.7876 75.7398C96.9961 78.7116 95.6589 80.1975 92.776 80.1975C89.7023 80.1975 86.6249 80.1975 83.5512 80.1975V80.2013ZM89.1863 74.2162C89.0092 73.4243 88.9038 72.8095 88.738 72.2175C87.7097 68.5895 84.8922 66.2362 81.1894 65.893C77.0008 65.5045 73.2491 67.4354 71.6181 70.8221C70.0511 74.0729 70.1377 74.2162 73.6973 74.2162C78.8239 74.2162 83.9505 74.2162 89.19 74.2162H89.1863Z" fill="black"/>
<path d="M127.163 67.7633C127.803 66.8582 128.443 65.9568 129.084 65.0517C130.342 63.7582 131.863 62.804 133.317 61.7594C138.218 59.6965 143.213 59.1157 148.302 60.9749C153.078 62.7211 155.707 66.3226 156.841 71.165C157.026 71.9532 156.849 72.3529 155.982 72.3756C155.549 72.3869 155.112 72.5 154.686 72.6018C151.918 73.258 149.613 73.7559 148.4 69.8563C147.432 66.7413 144.29 65.8588 141.077 66.1869C137.811 66.5225 135.242 67.9254 133.95 71.1386C132.824 72.7301 132.587 74.5629 132.534 76.4448C132.293 78.206 132.357 79.971 132.534 81.7321C132.636 83.8931 133.054 85.9598 134.368 87.7474C136.41 91.1453 139.551 92.073 143.235 91.5865C146.833 91.1114 148.844 88.8146 149.775 85.4469C150.464 82.9465 150.449 82.9427 153.074 83.2444C153.447 83.2859 153.824 83.3274 154.193 83.3802C156.646 83.7221 157.491 85.1087 156.728 87.5399C154.408 94.9166 147.036 99.1178 138.817 97.7715C137.141 97.4962 135.536 96.987 133.95 96.3987C132.176 95.3805 130.519 94.2038 129.076 92.7443C128.564 92.0655 128.048 91.3904 127.535 90.7116C126.797 88.9579 126.055 87.2043 125.313 85.4506C125.321 84.5455 125.226 83.6593 124.933 82.7994C124.752 80.5555 124.563 78.3116 124.869 76.0639C125.019 74.9325 125.17 73.8049 125.321 72.6735C125.935 71.0368 126.545 69.4 127.159 67.7595L127.163 67.7633Z" fill="black"/>
<path d="M111.749 71.0859C111.12 72.3266 110.988 73.6805 110.89 75.0344C110.815 75.3927 110.679 75.7547 110.679 76.1168C110.679 82.5129 110.698 88.909 110.713 95.3051C109.888 95.9575 108.89 95.3768 108.016 95.6747C106.506 95.6634 104.995 95.6483 103.489 95.637C102.513 94.581 103.489 93.4987 103.481 92.4314C103.398 81.9019 103.387 71.3725 103.353 60.843C105.376 60.3452 107.429 60.7073 109.463 60.6205C110.031 60.5979 110.22 60.8958 110.197 61.4351C110.171 62.1139 110.19 62.7928 110.19 64.0071C112.401 60.8317 115.143 59.591 118.544 59.8549C120.488 60.5451 122.759 60.53 124.119 62.4685C123.63 63.7507 123.14 65.0329 122.654 66.3152C122.074 66.9525 122.345 68.1706 121.215 68.4384C120.409 67.7633 119.471 67.4126 118.439 67.2957C115.135 66.5414 112.585 67.9896 111.749 71.0934V71.0859Z" fill="black"/>
<path d="M71.1469 58.7085C68.706 58.7425 66.6719 56.804 66.6192 54.3866C66.5665 51.973 68.5327 49.9629 70.9887 49.9139C73.4069 49.8648 75.4787 51.8372 75.5314 54.232C75.5841 56.6041 73.5538 58.6746 71.1469 58.7123V58.7085Z" fill="#E85D0F"/>
<path d="M82.2739 57.6076C79.8104 57.6076 77.8555 55.6578 77.8555 53.2027C77.8555 50.7476 79.8104 48.8205 82.289 48.8242C84.7374 48.8318 86.7488 50.8192 86.7413 53.2215C86.7338 55.6239 84.711 57.6076 82.2739 57.6076Z" fill="#E85D0F"/>
<path d="M61.587 102.097C59.1085 102.105 57.1724 100.185 57.1573 97.7113C57.1422 95.2147 59.0407 93.3102 61.5494 93.3026C63.9563 93.2951 66.0469 95.3165 66.0582 97.6698C66.0695 99.9929 63.9526 102.09 61.587 102.097Z" fill="#E85D0F"/>
<path d="M103.349 60.8438C103.383 71.3733 103.398 81.9027 103.477 92.4322C103.485 93.4995 102.509 94.5818 103.485 95.6378C103.089 97.1576 102.569 98.5794 100.837 99.0659C99.7744 97.5762 100.102 95.8641 100.087 94.216C100.068 91.8401 100.26 91.693 102.325 92.304C102.603 92.1456 102.942 93.3599 103.134 92.304C103.244 91.7081 103.085 91.0632 103.044 90.4409C103.052 87.5484 103.059 84.6596 103.063 81.767C103.391 80.3754 103.085 79.3911 101.831 78.4143C99.4354 76.5513 99.6652 73.4626 102.23 71.5807C103.553 70.6115 103.47 69.6385 102.694 68.4581C101.571 68.0546 101.033 67.3531 101.176 66.0671C101.308 64.8942 101.285 63.6874 101.176 62.5107C101.089 61.534 101.503 61.0098 102.313 60.6553C102.656 60.7156 102.995 60.7797 103.338 60.8401L103.349 60.8438Z" fill="#E78049"/>
<path d="M97.0474 56.8609C97.0361 59.3047 95.0435 61.2959 92.629 61.2733C90.2559 61.2507 88.1465 59.1538 88.1691 56.8383C88.1917 54.4925 90.2785 52.4372 92.6553 52.4221C95.0623 52.407 97.0587 54.4246 97.0512 56.8609H97.0474Z" fill="#E96A23"/>
<path d="M80.6809 100.133C83.2008 100.144 85.0654 102.015 85.0616 104.53C85.0616 107.038 83.182 108.912 80.662 108.916C78.1797 108.92 76.2737 107.004 76.2813 104.515C76.2888 102.015 78.1873 100.122 80.6809 100.133Z" fill="#E85D0F"/>
<path d="M53.2553 83.6674C50.8069 83.6485 48.8294 81.6573 48.8557 79.2399C48.8783 76.8225 50.8898 74.8727 53.3382 74.8878C55.7904 74.9029 57.7529 76.879 57.7453 79.3228C57.7378 81.7478 55.7339 83.6862 53.2591 83.6674H53.2553Z" fill="#E85D0F"/>
<path d="M55.2965 73.3898C52.8519 73.4125 50.8555 71.4816 50.8065 69.0415C50.7576 66.6355 52.7502 64.6254 55.1986 64.6027C57.5867 64.5801 59.715 66.6128 59.7489 68.9473C59.7828 71.2591 57.6734 73.3634 55.2965 73.3861V73.3898Z" fill="#E85D0F"/>
<path d="M70.6838 98.7257C73.1021 98.7483 75.0307 100.747 75.0006 103.202C74.9704 105.654 72.9816 107.592 70.552 107.535C68.0697 107.479 66.1675 105.525 66.1976 103.066C66.2278 100.649 68.2354 98.7031 70.6838 98.7257Z" fill="#E85D0F"/>
<path d="M55.488 93.5136C52.9681 93.5286 51.1073 91.6732 51.1035 89.1388C51.0998 86.6234 52.9718 84.7264 55.4579 84.7227C57.8837 84.7189 59.8726 86.695 59.8801 89.1124C59.8876 91.56 57.9477 93.5022 55.488 93.5136Z" fill="#E85D0F"/>
<path d="M61.1839 64.7243C58.6978 64.762 56.7843 62.899 56.7429 60.4024C56.7014 57.8869 58.5472 55.9749 61.0445 55.9447C63.5005 55.9145 65.5006 57.8379 65.5308 60.259C65.5609 62.684 63.6135 64.6865 61.1839 64.7243Z" fill="#E85D0F"/>
<path d="M90.5465 97.4823C93.0514 97.4446 94.9461 99.3227 94.9574 101.849C94.9687 104.289 93.1719 106.19 90.7763 106.266C88.294 106.345 86.3277 104.489 86.2335 101.981C86.1431 99.5226 88.0642 97.5125 90.5427 97.4785L90.5465 97.4823Z" fill="#E8651C"/>
<path d="M110.714 95.305C110.699 88.9089 110.68 82.5128 110.68 76.1167C110.68 75.7546 110.819 75.3926 110.891 75.0343C110.891 79.2695 110.891 83.5009 110.891 87.8756C113.629 86.0804 115.445 86.0917 116.955 87.7624C118.115 89.0447 118.202 91.2546 117.147 92.6085C115.836 94.2943 113.938 94.381 110.966 92.8046C110.966 93.6833 110.966 94.4791 110.966 95.2786C110.883 95.2899 110.8 95.2937 110.717 95.2975L110.714 95.305Z" fill="#F1A379"/>
<path d="M52.916 50.0953C52.9311 48.0135 54.709 46.2825 56.7807 46.324C58.8675 46.3655 60.5889 48.1606 60.5287 50.231C60.4684 52.2638 58.8035 53.8628 56.7393 53.8816C54.5922 53.9005 52.901 52.226 52.9198 50.0953H52.916Z" fill="#E85D10"/>
<path d="M40.4259 68.1704C40.4071 66.0019 42.0494 64.3463 44.204 64.3614C46.2908 64.3727 48.0838 66.1679 48.0386 68.2006C47.9934 70.1692 46.2644 71.8776 44.268 71.9229C42.1172 71.9719 40.4448 70.3352 40.4259 68.1742V68.1704Z" fill="#E85D0F"/>
<path d="M95.4987 48.5906C95.461 46.3957 97.0506 44.7363 99.1901 44.7363C101.281 44.7363 103.074 46.49 103.051 48.5114C103.028 50.5818 101.277 52.2789 99.1713 52.2751C97.1109 52.2676 95.5326 50.6874 95.4987 48.5944V48.5906Z" fill="#EB7C3E"/>
<path d="M82.8733 115.749C82.8922 117.989 81.3704 119.569 79.1857 119.569C77.0348 119.569 75.3624 117.895 75.385 115.772C75.4076 113.754 77.0537 112.076 79.0689 112.012C81.1896 111.944 82.8545 113.577 82.8733 115.749Z" fill="#E85D10"/>
<path d="M66.7888 117.62C64.6568 117.639 62.9316 115.957 62.9316 113.86C62.9316 111.801 64.7246 110.036 66.7926 110.066C68.7965 110.096 70.4803 111.756 70.5518 113.769C70.6234 115.829 68.8944 117.601 66.7888 117.616V117.62Z" fill="#E85D0F"/>
<path d="M105.779 107.705C105.821 109.896 104.265 111.514 102.076 111.552C99.9557 111.589 98.2192 109.892 98.2305 107.803C98.2418 105.808 99.918 104.073 101.888 104.013C104.02 103.945 105.738 105.578 105.779 107.709V107.705Z" fill="#EC834A"/>
<path d="M48.686 54.1568C50.8105 54.1267 52.5583 55.8087 52.5809 57.9017C52.6035 59.9684 50.8482 61.707 48.7463 61.6994C46.6671 61.6956 45.0699 60.1343 45.0097 58.0526C44.9456 55.8803 46.5427 54.187 48.686 54.1568Z" fill="#E85D10"/>
<path d="M63.8127 44.3139C63.7901 42.1341 65.4098 40.5237 67.6096 40.5313C69.6136 40.5388 71.3651 42.2057 71.4292 44.1706C71.4932 46.192 69.719 48.0362 67.6624 48.0889C65.5492 48.1417 63.8353 46.4635 63.8127 44.3139Z" fill="#E85D10"/>
<path d="M75.1963 42.3597C75.2114 40.1686 76.8311 38.5733 79.0158 38.611C81.1478 38.6487 82.8052 40.3684 82.7449 42.4804C82.6846 44.498 81.0122 46.1461 78.9932 46.1725C76.88 46.1988 75.185 44.498 75.2001 42.3634L75.1963 42.3597Z" fill="#E85D10"/>
<path d="M45.8418 101.12C45.8343 98.9893 47.503 97.3036 49.6237 97.2998C51.7105 97.2998 53.4017 99.0497 53.3641 101.173C53.3264 103.243 51.7218 104.846 49.6651 104.865C47.4841 104.884 45.8494 103.285 45.8418 101.12Z" fill="#E85D10"/>
<path d="M44.2292 86.9786C46.3047 86.9899 48.1128 88.785 48.0789 90.8027C48.045 92.8354 46.2105 94.5626 44.1275 94.5212C42.0106 94.4797 40.5152 92.941 40.5001 90.7989C40.485 88.5776 42.0558 86.9673 44.2292 86.9786Z" fill="#E85D0F"/>
<path d="M119.697 79.6395C119.701 81.6572 117.889 83.5126 115.919 83.5089C113.987 83.5051 112.111 81.5742 112.13 79.6131C112.149 77.5955 113.78 76.0002 115.848 75.9738C118.089 75.9437 119.69 77.471 119.697 79.6395Z" fill="#F2A981"/>
<path d="M42.4628 75.5704C44.6287 75.5968 46.2522 77.2637 46.207 79.4134C46.1618 81.5065 44.3801 83.1998 42.2933 83.1281C40.2969 83.0602 38.6395 81.3443 38.6357 79.338C38.632 77.2147 40.327 75.544 42.4628 75.5704Z" fill="#E85D0F"/>
<path d="M107.903 52.7318C109.975 52.7582 111.727 54.5081 111.738 56.5635C111.749 58.5962 109.941 60.331 107.851 60.297C105.775 60.2669 104.189 58.6678 104.182 56.6012C104.17 54.444 105.843 52.7017 107.903 52.7318Z" fill="#EF9361"/>
<path d="M94.5647 113.834C94.591 116.059 93.0429 117.65 90.8544 117.639C88.7902 117.628 87.1403 116.051 87.0725 114.022C87.001 111.922 88.6621 110.145 90.7602 110.085C92.8809 110.021 94.5383 111.658 94.5684 113.834H94.5647Z" fill="#E85D0F"/>
<path d="M61.3501 109.097C61.3501 111.239 59.6513 112.924 57.5495 112.879C55.4438 112.83 53.7714 111.08 53.8317 108.98C53.8882 106.932 55.5229 105.333 57.5683 105.325C59.738 105.318 61.3539 106.928 61.3539 109.1L61.3501 109.097Z" fill="#E85D0F"/>
<path d="M110.713 95.3051C110.796 95.3013 110.879 95.2937 110.962 95.2862C113.945 96.9154 114.684 99.8004 112.619 101.754C111 103.281 108.868 103.236 107.289 101.637C105.76 100.087 105.753 98.1486 107.274 96.5006C107.527 96.229 107.772 95.9499 108.016 95.6746C108.89 95.3767 109.888 95.9575 110.713 95.3051Z" fill="#F0996B"/>
<path d="M93.7559 43.9248C93.6805 46.0857 92.0006 47.6244 89.8158 47.5339C87.7855 47.4509 86.2035 45.7576 86.2449 43.7174C86.2864 41.6017 88.0379 39.9084 90.1209 39.9725C92.2454 40.0366 93.8312 41.7601 93.7559 43.9248Z" fill="#E85D0F"/>
<path d="M102.328 92.3033C100.26 91.6923 100.068 91.8394 100.09 94.2153C100.105 95.8634 99.7777 97.5755 100.84 99.0652C98.384 99.9929 96.2633 99.2651 95.0994 97.0966C94.105 95.2411 94.6737 92.9406 96.463 91.5792C98.2748 90.2027 100.591 90.4893 102.328 92.3033Z" fill="#EB7A3C"/>
<path d="M102.325 60.659C101.515 61.0135 101.101 61.5377 101.187 62.5145C101.293 63.6912 101.315 64.898 101.187 66.0708C101.044 67.3569 101.583 68.0583 102.705 68.4618C100.607 69.4311 98.6296 69.0803 97.3188 67.5115C96.0419 65.9841 95.9402 63.8345 97.0702 62.1449C98.1852 60.4742 100.212 59.901 102.329 60.6553L102.325 60.659Z" fill="#EB7D41"/>
<path d="M125.302 96.7838C125.302 98.5035 123.622 100.163 121.908 100.136C120.337 100.11 118.62 98.4243 118.574 96.863C118.522 95.1169 120.307 93.3971 122.119 93.4424C123.761 93.4839 125.306 95.1055 125.302 96.7875V96.7838Z" fill="#F5BB9B"/>
<path d="M39.7818 97.4551C39.8195 99.2352 38.2751 100.819 36.4821 100.834C34.7042 100.849 33.1335 99.2691 33.1485 97.474C33.1636 95.7354 34.6214 94.2533 36.3654 94.208C38.1847 94.1628 39.7404 95.6411 39.7818 97.4551Z" fill="#E85D10"/>
<path d="M100.325 121.855C100.268 123.692 98.7049 125.136 96.8668 125.049C95.0248 124.963 93.5821 123.383 93.6914 121.572C93.7931 119.845 95.3186 118.438 97.0589 118.457C98.882 118.48 100.381 120.041 100.325 121.855Z" fill="#E85D10"/>
<path d="M33.3961 73.3863C31.5617 73.3713 30.0927 71.8326 30.1605 69.996C30.2283 68.2084 31.6634 66.7941 33.4112 66.7941C35.2192 66.7941 36.7787 68.329 36.7749 70.1053C36.7749 71.908 35.2381 73.3977 33.3961 73.3826V73.3863Z" fill="#E85D10"/>
<path d="M40.414 101.641C42.2823 101.618 43.6271 102.919 43.6723 104.794C43.7212 106.762 42.3614 108.199 40.4517 108.188C38.6361 108.18 37.2047 106.808 37.1557 105.024C37.103 103.123 38.508 101.664 40.414 101.641Z" fill="#E85D10"/>
<path d="M60.4307 33.1241C62.2161 33.109 63.8132 34.6854 63.7982 36.4504C63.7831 38.2304 62.1897 39.7842 60.4118 39.7578C58.6565 39.7314 57.2251 38.3021 57.1762 36.5258C57.1234 34.6929 58.6113 33.1392 60.4344 33.1241H60.4307Z" fill="#E85D10"/>
<path d="M82.391 32.4757C82.4249 34.4028 81.2082 35.7416 79.3475 35.8208C77.4 35.9038 75.9536 34.5612 75.9197 32.6454C75.882 30.7145 77.2644 29.2927 79.1817 29.2889C81.0387 29.2852 82.3609 30.5976 82.3948 32.4757H82.391Z" fill="#E85D10"/>
<path d="M87.9097 127.557C86.1281 127.436 84.6101 125.709 84.7796 123.993C84.9528 122.213 86.6403 120.825 88.4409 120.972C90.1698 121.116 91.5258 122.677 91.4354 124.423C91.3413 126.237 89.7216 127.678 87.9135 127.553L87.9097 127.557Z" fill="#E85D10"/>
<path d="M53.2928 114.241C54.9916 114.249 56.536 115.783 56.5737 117.503C56.6114 119.291 55.0142 120.894 53.2175 120.867C51.4961 120.845 49.9818 119.34 49.9517 117.616C49.9178 115.84 51.5111 114.23 53.2928 114.237V114.241Z" fill="#E85D10"/>
<path d="M66.1114 33.7842C66.1227 31.8722 67.539 30.4542 69.3998 30.5032C71.1965 30.5484 72.5601 31.9363 72.5864 33.7427C72.6166 35.6359 71.2078 37.103 69.347 37.1218C67.4975 37.1407 66.1038 35.7 66.1114 33.7804V33.7842Z" fill="#E85D10"/>
<path d="M32.6763 82.4792C30.8494 82.5283 29.2787 81.0424 29.2523 79.2397C29.226 77.4747 30.6084 76.0115 32.3863 75.921C34.1793 75.8305 35.8668 77.2975 35.9722 79.0436C36.0739 80.703 34.4128 82.434 32.6726 82.4792H32.6763Z" fill="#E85D10"/>
<path d="M101.903 40.5995C101.88 38.6347 103.262 37.2242 105.176 37.2544C106.935 37.2846 108.37 38.7403 108.378 40.509C108.389 42.3984 106.905 43.9183 105.082 43.8805C103.319 43.8466 101.921 42.4022 101.903 40.5957V40.5995Z" fill="#EE8B55"/>
<path d="M70.1415 121.237C71.9797 121.222 73.3658 122.557 73.4186 124.397C73.4751 126.317 72.0663 127.78 70.1678 127.78C68.3334 127.78 66.9322 126.434 66.8757 124.609C66.8192 122.7 68.2242 121.248 70.1377 121.233L70.1415 121.237Z" fill="#E85D0F"/>
<path d="M111.93 49.3705C110.001 49.3667 108.706 48.1297 108.675 46.2592C108.642 44.2943 109.982 42.8989 111.915 42.8839C113.806 42.8725 115.207 44.3169 115.166 46.2441C115.124 48.1222 113.828 49.378 111.934 49.3743L111.93 49.3705Z" fill="#F19F72"/>
<path d="M46.0183 49.6767C44.199 49.7031 42.6508 48.2021 42.632 46.3919C42.6132 44.593 44.1613 43.0958 46.0146 43.1184C47.8076 43.141 49.2088 44.5138 49.2615 46.3014C49.318 48.1493 47.8716 49.6541 46.0183 49.6805V49.6767Z" fill="#E85D0F"/>
<path d="M104.521 114.573C106.352 114.622 107.772 116.165 107.715 118.032C107.662 119.763 106.126 121.252 104.434 121.218C102.63 121.181 101.12 119.559 101.202 117.749C101.285 115.98 102.803 114.528 104.525 114.573H104.521Z" fill="#EE8A54"/>
<path d="M114.838 112.012C114.831 113.947 113.58 115.271 111.738 115.301C109.832 115.331 108.367 113.917 108.363 112.05C108.363 110.123 109.731 108.791 111.708 108.803C113.607 108.814 114.846 110.085 114.835 112.012H114.838Z" fill="#F09E71"/>
<path d="M43.6155 53.2597C43.6004 55.1454 42.2934 56.4804 40.4401 56.4993C38.504 56.5181 37.1216 55.1416 37.1329 53.1956C37.1442 51.261 38.553 49.9071 40.5004 49.9636C42.3574 50.0164 43.6306 51.3628 43.6155 53.2597Z" fill="#E85D10"/>
<path d="M65.09 122.086C65.0824 123.885 63.6548 125.359 61.9033 125.382C60.0915 125.405 58.5395 123.858 58.5508 122.044C58.5621 120.223 60.1254 118.707 61.9447 118.752C63.7 118.797 65.1013 120.283 65.09 122.086Z" fill="#E85D0F"/>
<path d="M88.3159 36.786C86.4551 36.8011 85.0086 35.3529 85.0049 33.4786C85.0049 31.6231 86.4815 30.1485 88.3234 30.1712C90.0825 30.1938 91.4837 31.608 91.5214 33.3956C91.5628 35.2813 90.1541 36.7671 88.3121 36.7822L88.3159 36.786Z" fill="#E85D10"/>
<path d="M117.892 56.4989C116.058 56.5291 114.48 55.0244 114.483 53.2481C114.487 51.551 116.02 50.0462 117.761 50.0236C119.493 50.0048 121.071 51.4567 121.147 53.1349C121.23 54.9942 119.806 56.465 117.892 56.4989Z" fill="#F3B18B"/>
<path d="M99.7934 36.013C99.7934 37.9025 98.509 39.2149 96.6331 39.2488C94.7121 39.2827 93.2995 37.8798 93.3146 35.9489C93.3296 34.1349 94.7083 32.732 96.5126 32.6943C98.4261 32.6566 99.7972 34.0369 99.7934 36.013Z" fill="#E85D10"/>
<path d="M33.8707 91.9526C32.0401 91.9903 30.4806 90.4742 30.4844 88.6678C30.4881 86.933 31.9459 85.4546 33.6974 85.4056C35.5771 85.3528 37.0988 86.7557 37.1478 88.5848C37.1968 90.3988 35.7202 91.9149 33.8669 91.9488L33.8707 91.9526Z" fill="#E85D0F"/>
<path d="M39.13 61.6999C39.1639 63.5553 37.7401 65.0563 35.9169 65.0865C34.124 65.1167 32.5532 63.5742 32.5645 61.7904C32.572 60.0669 34.0147 58.5697 35.7399 58.4943C37.548 58.4151 39.0999 59.8821 39.13 61.7036V61.6999Z" fill="#E85D0F"/>
<path d="M82.5565 125.302C82.5942 127.067 81.208 128.549 79.449 128.629C77.558 128.715 76.0325 127.354 75.9534 125.514C75.8743 123.666 77.2755 122.157 79.1401 122.085C80.9896 122.014 82.5189 123.451 82.5565 125.299V125.302Z" fill="#E85D0F"/>
<path d="M46.3538 115.274C44.4441 115.236 43.0692 113.765 43.1446 111.846C43.2161 110.021 44.6174 108.708 46.4668 108.731C48.3728 108.753 49.7552 110.228 49.6686 112.148C49.5857 113.988 48.1807 115.315 46.3538 115.278V115.274Z" fill="#E85D0F"/>
<path d="M120.484 105.217C120.503 107.242 119.256 108.52 117.271 108.516C115.437 108.516 114.058 107.17 114.016 105.341C113.975 103.463 115.429 102.015 117.331 102.037C119.241 102.06 120.465 103.297 120.484 105.213V105.217Z" fill="#F3AF89"/>
<path d="M53.1685 37.1519C54.9427 37.2123 56.3552 38.6868 56.3364 40.4594C56.3138 42.3224 54.7845 43.7668 52.9199 43.6914C51.1872 43.6235 49.673 42.0735 49.6956 40.3915C49.7182 38.6227 51.3642 37.0916 53.1723 37.1519H53.1685Z" fill="#E85D0F"/>
<path d="M125.321 85.4504C126.063 87.2041 126.801 88.9577 127.543 90.7114C126.933 90.9942 126.33 91.2997 125.713 91.5599C124.165 92.2086 122.899 91.6768 121.897 90.4775C120.959 89.3575 120.854 88.0451 121.678 86.842C122.534 85.5899 123.679 84.7867 125.325 85.4504H125.321Z" fill="#F5C1A3"/>
<path d="M121.215 68.4313C122.342 68.1635 122.074 66.9454 122.654 66.308C124.323 66.2741 126.003 66.2175 127.167 67.76C126.553 69.3967 125.943 71.0334 125.329 72.674C121.886 72.7758 120.982 71.8443 121.215 68.4313Z" fill="#F5C0A2"/>
<path d="M87.6571 133.226C87.6307 134.802 86.4819 135.96 84.9262 135.971C83.3517 135.986 82.0295 134.659 82.0672 133.105C82.1086 131.525 83.4496 130.295 85.0505 130.375C86.6175 130.454 87.6835 131.619 87.6571 133.226Z" fill="#E85D10"/>
<path d="M51.8342 129.167C50.3275 129.194 48.8924 127.836 48.8848 126.373C48.8735 124.894 50.271 123.548 51.8078 123.559C53.3146 123.571 54.5388 124.755 54.5802 126.248C54.6254 127.847 53.4087 129.141 51.838 129.167H51.8342Z" fill="#E85D10"/>
<path d="M120.729 116.775C119.256 116.824 117.87 115.568 117.825 114.143C117.772 112.578 119.06 111.194 120.597 111.16C122.093 111.13 123.373 112.325 123.434 113.807C123.498 115.421 122.315 116.722 120.733 116.775H120.729Z" fill="#F4B896"/>
<path d="M27.309 74.02C27.3052 75.5134 25.8776 76.8522 24.3294 76.8108C22.7813 76.773 21.64 75.5813 21.6475 74.0049C21.6513 72.4474 22.8152 71.2406 24.3483 71.2028C25.8738 71.1651 27.3165 72.5379 27.3127 74.0162L27.309 74.02Z" fill="#E85E11"/>
<path d="M37.1328 40.9386C38.696 40.9537 39.875 42.1153 39.9052 43.669C39.9391 45.2869 38.6697 46.5842 37.0763 46.5616C35.5206 46.539 34.191 45.1474 34.2625 43.6125C34.3341 42.1228 35.6148 40.9235 37.129 40.9386H37.1328Z" fill="#E85E11"/>
<path d="M123.799 44.2762C123.784 45.8376 122.458 47.0934 120.876 47.0444C119.358 46.9991 118.134 45.7584 118.157 44.2876C118.179 42.7602 119.588 41.395 121.08 41.4478C122.571 41.5043 123.814 42.7941 123.799 44.2762Z" fill="#F5B897"/>
<path d="M75.5727 133.256C75.5237 134.727 74.2317 135.968 72.7439 135.968C71.1468 135.968 69.8811 134.671 69.9301 133.075C69.9753 131.552 71.207 130.371 72.7401 130.375C74.341 130.379 75.6255 131.687 75.5727 133.256Z" fill="#E85D10"/>
<path d="M27.287 99.7743C25.8029 99.8045 24.5108 98.5977 24.428 97.108C24.3413 95.5505 25.622 94.1891 27.1966 94.174C28.692 94.1589 29.9915 95.3544 30.0744 96.829C30.161 98.3337 28.8313 99.7442 27.287 99.7743Z" fill="#E85D11"/>
<path d="M126.82 56.0273C125.426 55.9971 124.157 54.6281 124.172 53.1762C124.187 51.6601 125.404 50.4118 126.869 50.408C128.481 50.4043 129.882 51.7431 129.8 53.2026C129.713 54.6658 128.248 56.0612 126.824 56.0273H126.82Z" fill="#F7C9AF"/>
<path d="M27.4113 85.405C27.4151 86.9588 26.1268 88.2146 24.541 88.192C22.9514 88.1731 21.6858 86.8796 21.7348 85.3258C21.7837 83.855 23.0418 82.6256 24.5222 82.6029C26.0666 82.5765 27.4075 83.8776 27.4113 85.405Z" fill="#E85D10"/>
<path d="M66.5585 131.416C66.5321 132.992 65.2326 134.218 63.6392 134.169C62.0421 134.12 60.8367 132.826 60.9083 131.246C60.9799 129.745 62.2116 128.568 63.7145 128.561C65.2552 128.553 66.5848 129.888 66.5585 131.419V131.416Z" fill="#E85D10"/>
<path d="M36.5833 116.312C35.0239 116.353 33.7432 115.086 33.7432 113.494C33.7432 111.944 34.8544 110.768 36.3874 110.7C37.9092 110.632 39.3557 111.91 39.4197 113.389C39.4837 114.795 38.0524 116.27 36.5833 116.312Z" fill="#E85D10"/>
<path d="M127.092 107.373C125.566 107.407 124.255 106.264 124.184 104.831C124.101 103.21 125.34 101.825 126.866 101.833C128.38 101.841 129.736 103.032 129.815 104.424C129.902 105.944 128.613 107.335 127.092 107.369V107.373Z" fill="#F7C8AE"/>
<path d="M104.698 28.1164C106.253 28.1352 107.579 29.508 107.512 31.0316C107.447 32.442 106.076 33.7394 104.649 33.7394C103.063 33.7394 101.869 32.4496 101.922 30.7978C101.971 29.2251 103.138 28.1013 104.701 28.1164H104.698Z" fill="#E85E11"/>
<path d="M46.844 121.063C46.8064 122.5 45.4729 123.809 44.0378 123.813C42.4859 123.813 41.1637 122.478 41.1939 120.935C41.224 119.37 42.565 118.148 44.1621 118.22C45.6387 118.288 46.8779 119.604 46.8403 121.06L46.844 121.063Z" fill="#E85D10"/>
<path d="M85.841 22.0781C87.3854 22.1196 88.5154 23.3151 88.5004 24.8877C88.4853 26.5094 87.1707 27.7841 85.615 27.6898C84.2251 27.6068 82.8314 26.1775 82.8389 24.8462C82.8464 23.4131 84.3381 22.0404 85.8448 22.0781H85.841Z" fill="#E85E11"/>
<path d="M98.585 27.1133C98.5775 28.5879 97.1197 29.9644 95.6168 29.9191C94.1402 29.8776 92.916 28.5954 92.916 27.0907C92.916 25.5633 94.1101 24.3452 95.6394 24.3188C97.2101 24.2924 98.5925 25.601 98.585 27.1095V27.1133Z" fill="#E85D10"/>
<path d="M30.7254 55.944C29.279 55.9667 27.938 54.6957 27.8664 53.2362C27.7911 51.6749 29.0793 50.3474 30.6802 50.3399C32.2208 50.3323 33.4601 51.5014 33.5166 53.01C33.5731 54.5486 32.266 55.9214 30.7216 55.944H30.7254Z" fill="#E85E11"/>
<path d="M107.5 127.078C107.474 128.568 106.02 129.918 104.521 129.843C102.991 129.764 101.88 128.553 101.903 126.984C101.925 125.393 103.052 124.254 104.615 124.246C106.189 124.239 107.526 125.555 107.5 127.082V127.078Z" fill="#E85D10"/>
<path d="M62.3817 29.7225C60.826 29.6811 59.7375 28.5308 59.7412 26.9318C59.745 25.2913 60.9993 24.0279 62.555 24.092C63.9449 24.1486 65.301 25.5402 65.3123 26.9205C65.3198 28.4101 63.9073 29.764 62.3817 29.7225Z" fill="#E85E11"/>
<path d="M55.3111 31.1744C55.3035 32.7433 54.166 33.8898 52.5952 33.9162C51.0395 33.9426 49.6571 32.6113 49.676 31.1066C49.6948 29.7074 51.0433 28.3686 52.4709 28.3309C54.0643 28.2894 55.3224 29.5452 55.3111 31.1707V31.1744Z" fill="#E85D10"/>
<path d="M97.7824 131.143C97.7297 132.693 96.3737 133.923 94.8029 133.844C93.3 133.768 92.1436 132.505 92.1888 130.989C92.234 129.409 93.5863 128.16 95.1457 128.258C96.5997 128.353 97.8314 129.699 97.7862 131.143H97.7824Z" fill="#E85D10"/>
<path d="M113.271 39.4945C111.776 39.4681 110.601 38.2312 110.623 36.7076C110.646 35.1651 111.84 33.8979 113.286 33.8791C114.695 33.8602 116.206 35.331 116.232 36.7415C116.258 38.2048 114.842 39.5209 113.275 39.4945H113.271Z" fill="#F1A378"/>
<path d="M73.0378 21.9122C74.5784 21.9122 75.9608 23.2925 75.9156 24.7897C75.8704 26.2794 74.6236 27.4711 73.0943 27.4975C71.4633 27.5239 70.2278 26.2869 70.2655 24.6539C70.2994 23.1794 71.5801 21.9122 73.0416 21.9084L73.0378 21.9122Z" fill="#E85D0F"/>
<path d="M46.983 36.6959C46.9943 38.2761 45.8944 39.4641 44.3689 39.5169C42.8509 39.5697 41.412 38.2158 41.4082 36.7337C41.4044 35.2817 42.8773 33.8448 44.3388 33.8826C45.8342 33.9203 46.9755 35.1309 46.9868 36.6997L46.983 36.6959Z" fill="#E85E11"/>
<path d="M26.5632 66.1422C25.0377 66.1875 23.6816 64.8524 23.6816 63.3062C23.6816 61.809 24.8945 60.5758 26.4013 60.5343C27.9193 60.4928 29.1661 61.6355 29.2602 63.1516C29.3544 64.7091 28.1038 66.1007 26.5632 66.146V66.1422Z" fill="#E85E11"/>
<path d="M113.249 124.046C111.723 124.073 110.382 122.874 110.341 121.444C110.299 119.973 111.554 118.661 113.042 118.616C114.744 118.563 115.942 119.683 115.957 121.346C115.972 122.975 114.929 124.02 113.249 124.05V124.046Z" fill="#F1A176"/>
<path d="M31.0615 102.685C32.7227 102.693 33.8715 103.889 33.8263 105.567C33.7811 107.132 32.6247 108.244 31.0465 108.241C29.4343 108.241 28.1762 106.943 28.2365 105.359C28.2967 103.832 29.5134 102.682 31.0615 102.685Z" fill="#E85D10"/>
<path d="M103.071 81.7705C103.063 84.6631 103.055 87.5519 103.052 90.4445C100.633 89.694 99.4469 88.276 99.4356 86.1226C99.4243 84.0597 100.547 82.7133 103.074 81.7705H103.071Z" fill="#E98149"/>
<path d="M15.8476 76.9775C17.2865 76.9775 18.635 78.339 18.5785 79.7419C18.5258 81.0769 17.2187 82.3215 15.8514 82.3328C14.3447 82.3441 13.113 81.0769 13.1657 79.5646C13.2147 78.1316 14.4125 76.9775 15.8439 76.9775H15.8476Z" fill="#E85D10"/>
<path d="M134.734 44.9022C134.663 46.4635 133.631 47.4214 132.06 47.3875C130.617 47.3573 129.378 45.9996 129.461 44.5515C129.551 43.0128 130.599 42.0737 132.184 42.1114C133.834 42.1492 134.81 43.2202 134.731 44.8984L134.734 44.9022Z" fill="#F9D7C4"/>
<path d="M66.3142 19.804C64.8791 19.7663 63.7001 18.5746 63.6963 17.1528C63.6925 15.6292 64.9167 14.4563 66.4724 14.4978C67.9188 14.5393 69.1054 15.716 69.1167 17.1227C69.128 18.5595 67.787 19.8455 66.318 19.804H66.3142Z" fill="#E85E11"/>
<path d="M105.429 137.551C105.383 139.022 104.246 140.134 102.792 140.127C101.27 140.123 100.057 138.882 100.099 137.377C100.14 135.861 101.413 134.722 102.95 134.82C104.427 134.915 105.474 136.065 105.429 137.551Z" fill="#E85D10"/>
<path d="M115.938 132.113C115.9 133.622 114.823 134.606 113.237 134.587C111.704 134.569 110.612 133.475 110.634 131.993C110.657 130.59 111.907 129.311 113.267 129.308C114.71 129.304 115.979 130.635 115.942 132.117L115.938 132.113Z" fill="#F1A278"/>
<path d="M36.5158 123.153C36.4895 124.579 35.318 125.751 33.8979 125.778C32.4063 125.804 31.1632 124.552 31.1859 123.047C31.2085 121.599 32.3535 120.479 33.8188 120.468C35.4159 120.457 36.5422 121.58 36.5121 123.157L36.5158 123.153Z" fill="#E85D10"/>
<path d="M43.8872 23.8581C45.3638 23.8241 46.5428 24.9366 46.5917 26.4037C46.6407 27.8443 45.4956 29.1115 44.0831 29.1869C42.6366 29.2623 41.2693 27.9612 41.2618 26.5017C41.2542 25.0724 42.4295 23.8882 43.891 23.8581H43.8872Z" fill="#E85D10"/>
<path d="M57.3872 20.7054C57.4136 22.0669 56.2007 23.3114 54.7844 23.3793C53.2212 23.4547 51.9857 22.3233 51.9555 20.7846C51.9292 19.3666 53.078 18.1447 54.5132 18.0693C55.9219 17.9939 57.3608 19.3138 57.3872 20.7054Z" fill="#E85E12"/>
<path d="M23.9906 104.635C23.9756 106.053 22.6082 107.343 21.1806 107.283C19.7493 107.222 18.6607 106.049 18.672 104.579C18.6833 103.07 19.7455 101.984 21.2334 101.961C22.7212 101.935 24.0019 103.183 23.9869 104.639L23.9906 104.635Z" fill="#E85D10"/>
<path d="M19.7117 66.7303C19.7682 68.1144 18.6043 69.3891 17.1993 69.4834C15.7528 69.5814 14.3629 68.3407 14.3139 66.9076C14.265 65.5726 15.4703 64.2526 16.8339 64.147C18.2841 64.0339 19.6552 65.2633 19.7117 66.7303Z" fill="#E85D10"/>
<path d="M123.189 126.634C121.765 126.619 120.462 125.367 120.496 124.054C120.533 122.651 121.78 121.414 123.178 121.388C124.522 121.362 126.014 122.829 125.988 124.149C125.961 125.457 124.617 126.653 123.189 126.638V126.634Z" fill="#F5BEA0"/>
<path d="M65.7566 143.306C64.265 143.261 63.1538 142.107 63.1801 140.625C63.2065 139.177 64.4081 137.989 65.8395 137.996C67.3236 138.008 68.5892 139.335 68.5177 140.802C68.4461 142.231 67.2144 143.348 65.7566 143.303V143.306Z" fill="#E85D10"/>
<path d="M19.9602 92.7902C19.915 94.2949 18.7736 95.3773 17.2782 95.3358C15.9071 95.2981 14.5812 93.997 14.585 92.6846C14.585 91.3005 16.0276 89.9806 17.4779 90.0409C18.9507 90.1013 20.0054 91.2704 19.9602 92.7864V92.7902Z" fill="#E85D0F"/>
<path d="M23.1844 55.2235C23.1429 56.6302 21.8999 57.8483 20.5062 57.8445C19.0221 57.8408 17.8054 56.5208 17.8845 55.0047C17.9598 53.5339 19.1501 52.4591 20.6305 52.5232C22.0958 52.5873 23.2258 53.7828 23.1844 55.2235Z" fill="#E85E11"/>
<path d="M94.0646 140.949C94.0194 142.413 92.8254 143.555 91.3789 143.525C89.9777 143.491 88.7384 142.247 88.7422 140.863C88.7422 139.362 90.0267 138.159 91.5597 138.219C93.025 138.279 94.1136 139.463 94.0646 140.949Z" fill="#E85D10"/>
<path d="M80.6325 142.009C80.6627 143.423 79.4837 144.667 78.0636 144.72C76.5607 144.777 75.2536 143.51 75.2837 142.024C75.3101 140.583 76.5117 139.41 77.9506 139.414C79.4046 139.418 80.6024 140.579 80.6325 142.005V142.009Z" fill="#E85D10"/>
<path d="M53.7709 134.139C55.2174 134.146 56.3663 135.308 56.3851 136.775C56.4002 138.242 55.2777 139.422 53.8274 139.46C52.3019 139.498 51.1003 138.287 51.1304 136.737C51.1606 135.277 52.3245 134.131 53.7672 134.139H53.7709Z" fill="#E85D10"/>
<path d="M123.791 36.8847C122.115 36.8847 121.113 35.8551 121.166 34.1882C121.204 32.9211 122.469 31.6464 123.694 31.6426C125.193 31.6388 126.451 32.9022 126.44 34.4032C126.424 35.9343 125.407 36.8885 123.791 36.8847Z" fill="#F5BFA1"/>
<path d="M116.691 26.4682C116.684 28.0446 115.685 29.01 114.081 28.9949C112.529 28.9798 111.395 27.9163 111.38 26.4644C111.365 25.02 112.706 23.7076 114.171 23.7302C115.527 23.7528 116.699 25.0275 116.691 26.4682Z" fill="#F1A47A"/>
<path d="M44.0151 129.65C44.0076 131.133 42.8889 132.275 41.4311 132.294C39.9056 132.313 38.6776 131.053 38.7417 129.537C38.8019 128.093 40.0186 126.954 41.4575 126.984C42.919 127.018 44.0264 128.168 44.0189 129.65H44.0151Z" fill="#E85E11"/>
<path d="M81.9348 15.8668C81.9159 17.3904 80.6729 18.5482 79.1323 18.4803C77.6331 18.4124 76.5671 17.2999 76.5822 15.8215C76.5973 14.3281 77.8855 13.1024 79.3658 13.1703C80.7784 13.2344 81.9536 14.4676 81.9348 15.8668Z" fill="#E85D10"/>
<path d="M28.9067 44.3134C28.8841 45.754 27.6938 46.9382 26.2699 46.9382C24.8687 46.9382 23.6294 45.7201 23.5993 44.3059C23.5654 42.7898 24.8235 41.5717 26.3641 41.6207C27.8181 41.6659 28.9255 42.8426 28.9067 44.3134Z" fill="#E85D10"/>
<path d="M137.156 106.219C135.687 106.2 134.697 105.088 134.734 103.504C134.772 101.916 135.733 100.962 137.311 100.947C138.592 100.936 139.959 102.256 139.989 103.538C140.019 104.884 138.592 106.238 137.16 106.219H137.156Z" fill="#FBE4D8"/>
<path d="M96.6894 17.7636C96.6178 19.1816 95.3785 20.3093 93.917 20.2829C92.3614 20.2565 91.2803 19.0308 91.3782 17.4129C91.4649 15.9987 92.7606 14.8711 94.1732 14.9804C95.6121 15.0936 96.7572 16.3569 96.6856 17.7636H96.6894Z" fill="#E85D10"/>
<path d="M106.8 21.0144C106.803 22.4588 105.647 23.6467 104.204 23.6807C102.739 23.7146 101.575 22.6134 101.526 21.1388C101.473 19.57 102.641 18.3518 104.174 18.3707C105.609 18.3896 106.796 19.5851 106.8 21.0144Z" fill="#E85D11"/>
<path d="M137.272 57.1932C136.078 57.2196 134.786 55.9298 134.734 54.6589C134.666 52.9958 135.705 51.9134 137.359 51.9209C138.636 51.9285 139.969 53.1579 140 54.3572C140.033 55.779 138.704 57.163 137.272 57.1932Z" fill="#FBE5D9"/>
<path d="M129.069 114C129.062 112.363 129.962 111.473 131.597 111.495C133.024 111.514 134.471 112.879 134.313 114.207C134.139 115.666 133.224 116.587 131.755 116.73C130.395 116.866 129.073 115.444 129.065 114H129.069Z" fill="#F9D5C1"/>
<path d="M26.2921 111.069C27.7611 111.069 28.8949 112.189 28.9288 113.664C28.9627 115.199 27.731 116.428 26.213 116.376C24.7778 116.323 23.6252 115.108 23.6478 113.675C23.6704 112.22 24.8419 111.069 26.2921 111.069Z" fill="#E85D10"/>
<path d="M37.8786 33.5954C37.8221 35.0323 36.5941 36.1825 35.159 36.1486C33.641 36.1109 32.4092 34.7909 32.5185 33.3163C32.6239 31.9247 33.931 30.7745 35.3398 30.8461C36.7674 30.9178 37.9351 32.1812 37.8786 33.5954Z" fill="#E85D10"/>
<path d="M111.749 71.0863C112.581 67.9825 115.135 66.5343 118.439 67.2886C118.092 67.4319 117.855 67.5865 117.704 68.0202C116.514 71.4219 115.124 72.1159 111.749 71.0863Z" fill="#F0A77F"/>
<path d="M124.119 62.4648C122.759 60.5264 120.488 60.5415 118.544 59.8513C119.602 57.8035 121.056 56.9889 122.883 57.6263C124.409 58.158 125.057 59.3875 124.989 60.9978C124.963 61.6502 124.88 62.2536 124.119 62.4611V62.4648Z" fill="#F5BEA0"/>
<path d="M129.079 92.7442C130.522 94.2074 132.18 95.3803 133.954 96.3986C133.012 96.5381 132.903 97.8241 131.916 97.892C130.801 97.9712 129.66 98.1786 128.823 97.1C128.036 96.0856 128.209 94.9957 128.522 93.902C128.639 93.4947 128.887 93.1251 129.076 92.7404L129.079 92.7442Z" fill="#F7D0BB"/>
<path d="M133.317 61.7592C131.864 62.8001 130.342 63.758 129.084 65.0516C128.485 64.1465 128.108 63.1584 128.345 62.0798C128.601 60.9069 129.377 60.0659 130.564 59.8962C131.95 59.7001 132.847 60.4732 133.317 61.7592Z" fill="#F6D0BA"/>
<path d="M132.534 76.441C132.587 74.5591 132.824 72.73 133.95 71.1348C135.638 71.5006 136.128 72.73 135.815 74.1895C135.461 75.8451 134.248 76.5994 132.53 76.441H132.534Z" fill="#F9DCCB"/>
<path d="M124.877 76.0637C124.572 78.3114 124.76 80.5553 124.941 82.7992C123.487 82.1882 122.368 81.3095 122.304 79.5597C122.24 77.7117 123.408 76.7802 124.877 76.0674V76.0637Z" fill="#F6C1A3"/>
<path d="M134.369 87.7477C133.054 85.9563 132.636 83.8934 132.534 81.7325C132.949 82.0455 132.922 82.6338 133.596 82.8752C136.335 83.8557 136.606 85.8168 134.369 87.7477Z" fill="#F6DACA"/>
<path d="M13.8501 101.192C13.6656 102.154 13.157 102.817 12.1137 102.787C10.9836 102.757 10.3809 102.067 10.46 100.958C10.5354 99.936 11.2059 99.3816 12.2342 99.442C13.2776 99.5023 13.7409 100.185 13.8501 101.188V101.192Z" fill="#E86015"/>
<path d="M85.1111 150.785C84.1355 150.675 83.529 150.17 83.514 149.11C83.4989 148.058 84.0827 147.425 85.0885 147.409C86.1658 147.394 86.8852 148.051 86.8664 149.148C86.8475 150.162 86.1281 150.66 85.1111 150.781V150.785Z" fill="#E85F14"/>
<path d="M48.1171 16.6056C47.9513 17.6729 47.3449 18.3442 46.2525 18.2838C45.2468 18.2273 44.678 17.556 44.7232 16.5302C44.7722 15.4969 45.3824 14.9123 46.4145 14.95C47.4202 14.9877 47.9852 15.5911 48.1133 16.6094L48.1171 16.6056Z" fill="#E85F14"/>
<path d="M69.8022 150.446C68.6533 150.258 67.9941 149.67 68.0318 148.678C68.0695 147.705 68.74 147.003 69.7419 147.052C70.7665 147.105 71.5311 147.693 71.4558 148.862C71.3842 149.941 70.5593 150.243 69.806 150.443L69.8022 150.446Z" fill="#E86015"/>
<path d="M89.5666 9.08986C89.4122 10.2175 88.7944 10.7756 87.8113 10.7869C86.7754 10.802 86.1652 10.1194 86.169 9.14266C86.1727 8.07538 86.8131 7.36261 87.9507 7.46443C88.9225 7.55117 89.495 8.16589 89.5628 9.08986H89.5666Z" fill="#E85F14"/>
<path d="M59.2289 9.71191C60.2196 9.87785 60.9014 10.4021 60.8788 11.4354C60.8562 12.5517 60.1669 13.1777 59.0444 13.0985C58.0198 13.0269 57.451 12.382 57.5 11.3411C57.549 10.2776 58.2534 9.83637 59.2289 9.71569V9.71191Z" fill="#E86015"/>
<path d="M25.5771 122.897C25.5055 123.862 24.9329 124.439 23.9121 124.458C22.8838 124.477 22.2209 123.862 22.187 122.87C22.1493 121.765 22.8687 121.109 23.9573 121.132C24.9555 121.154 25.5469 121.761 25.5771 122.897Z" fill="#E85E13"/>
<path d="M13.1691 58.9806C13.0486 59.9951 12.4986 60.5985 11.4665 60.6061C10.4081 60.6136 9.80162 59.9386 9.79409 58.9693C9.78279 57.8983 10.4382 57.2006 11.5795 57.2572C12.6154 57.3062 13.1089 57.9699 13.1729 58.9844L13.1691 58.9806Z" fill="#E96116"/>
<path d="M57.2069 144.241C58.2729 144.26 58.9095 144.814 58.9886 145.814C59.0677 146.843 58.4161 147.522 57.4442 147.59C56.3933 147.662 55.6324 147.115 55.606 145.938C55.5834 144.86 56.2389 144.385 57.2031 144.245L57.2069 144.241Z" fill="#E85F14"/>
<path d="M113.316 15.6934C114.235 15.7763 114.815 16.3043 114.815 17.3603C114.815 18.3898 114.303 19.031 113.252 19.0611C112.103 19.0913 111.478 18.337 111.501 17.3112C111.519 16.3797 112.145 15.716 113.316 15.6934Z" fill="#E85F13"/>
<path d="M99.627 148.013C98.6401 147.749 97.8039 147.236 97.9094 146.142C97.9998 145.215 98.6967 144.577 99.7062 144.615C100.697 144.653 101.397 145.271 101.42 146.229C101.446 147.311 100.637 147.828 99.627 148.013Z" fill="#E96118"/>
<path d="M126.025 24.9894C125.72 25.8643 125.23 26.6186 124.213 26.6035C123.173 26.5884 122.627 25.9171 122.665 24.8725C122.703 23.8165 123.324 23.2847 124.356 23.2659C125.49 23.247 125.799 24.0616 126.021 24.9856L126.025 24.9894Z" fill="#F6C2A5"/>
<path d="M45.0102 139.649C44.8068 140.712 44.1702 141.338 43.0816 141.252C42.0532 141.169 41.5221 140.445 41.6088 139.453C41.6954 138.465 42.3282 137.846 43.3716 137.933C44.366 138.016 44.9198 138.634 45.0102 139.653V139.649Z" fill="#E85F14"/>
<path d="M135.114 123.968C134.907 125.009 134.304 125.529 133.268 125.446C132.217 125.363 131.705 124.737 131.731 123.696C131.762 122.569 132.583 122.097 133.487 122.176C134.406 122.259 134.963 123.014 135.114 123.964V123.968Z" fill="#F9DAC8"/>
<path d="M10.5284 72.7007C10.4305 73.8246 9.85791 74.4657 8.85595 74.4657C7.75982 74.4657 7.07427 73.7793 7.13453 72.6743C7.18727 71.6787 7.84645 71.0753 8.88232 71.113C9.91818 71.1507 10.4342 71.7843 10.5284 72.7007Z" fill="#E85F13"/>
<path d="M112.148 139.361C113.267 139.373 113.933 139.908 113.986 140.915C114.046 142.009 113.41 142.725 112.295 142.729C111.285 142.729 110.668 142.099 110.638 141.073C110.611 140.036 111.21 139.482 112.144 139.361H112.148Z" fill="#E86014"/>
<path d="M19.057 112.875C18.8762 113.758 18.5146 114.527 17.4373 114.569C16.424 114.606 15.7724 114.143 15.6933 113.068C15.6104 111.921 16.198 111.269 17.2979 111.227C18.3338 111.186 18.8235 111.906 19.0532 112.875H19.057Z" fill="#E85F14"/>
<path d="M34.0821 131.646C33.8786 132.543 33.4831 133.309 32.4209 133.339C31.4001 133.369 30.7711 132.845 30.7183 131.789C30.6656 130.665 31.2118 130.005 32.3569 129.99C33.4191 129.979 33.8523 130.714 34.0821 131.646Z" fill="#E85E12"/>
<path d="M18.5628 45.8715C18.4385 46.9991 17.8019 47.6553 16.7322 47.6213C15.7302 47.5912 15.1614 46.9161 15.1916 45.8865C15.2217 44.8457 15.8056 44.2724 16.8452 44.2875C17.8697 44.3064 18.4046 44.9249 18.5591 45.8715H18.5628Z" fill="#E85F14"/>
<path d="M103.79 12.4993C103.553 13.4609 103.052 14.1812 102.016 14.1134C100.942 14.0455 100.279 13.393 100.389 12.2579C100.487 11.2208 101.183 10.723 102.189 10.7758C103.248 10.8323 103.647 11.5753 103.794 12.503L103.79 12.4993Z" fill="#E86015"/>
<path d="M35.3552 22.0783C36.4061 22.2027 37.0729 22.8212 37.0352 23.7829C36.9975 24.8163 36.3082 25.5366 35.1819 25.4461C34.1649 25.3631 33.6413 24.7107 33.6941 23.666C33.7468 22.5987 34.3871 22.1386 35.3552 22.0745V22.0783Z" fill="#E85E12"/>
<path d="M8.97999 87.8051C7.86125 87.707 7.20584 87.0848 7.1983 86.1269C7.19077 85.0596 7.89892 84.3694 9.01012 84.4185C10.0384 84.4637 10.611 85.1426 10.5809 86.1533C10.5507 87.1791 9.89908 87.707 8.97999 87.8051Z" fill="#E85D11"/>
<path d="M71.8671 7.26831C72.9068 7.29094 73.5622 7.83778 73.63 8.82585C73.6978 9.81016 73.129 10.5229 72.1082 10.5946C71.0234 10.67 70.3152 10.1043 70.2813 8.96539C70.2512 7.91697 70.8727 7.39653 71.8634 7.27208L71.8671 7.26831Z" fill="#E85D11"/>
<path d="M124.978 133.746C124.809 134.689 124.278 135.454 123.332 135.45C122.455 135.45 121.633 134.892 121.581 133.859C121.532 132.818 122.18 132.267 123.189 132.218C124.217 132.169 124.779 132.746 124.978 133.746Z" fill="#F5BFA0"/>
<path d="M25.2637 31.7852C26.1941 31.9021 26.9361 32.3019 26.9851 33.3541C27.0416 34.5081 26.292 35.0813 25.2637 35.1153C24.2542 35.1454 23.6327 34.4327 23.6214 33.4672C23.6063 32.4867 24.2278 31.8908 25.2674 31.7852H25.2637Z" fill="#E85C0E"/>
<path d="M135.144 34.1495C135.088 35.3223 134.651 36.0426 133.585 36.0389C132.632 36.0351 132.131 35.4015 132.108 34.4549C132.086 33.4254 132.575 32.7428 133.634 32.7277C134.617 32.7164 134.997 33.4329 135.144 34.1495Z" fill="#FADAC9"/>
<path d="M78.6469 156.623C78.5339 157.423 78.0856 157.921 77.2984 157.906C76.4358 157.891 75.8896 157.396 75.9386 156.484C75.9913 155.579 76.5676 155.149 77.4415 155.232C78.2439 155.307 78.6017 155.854 78.6431 156.62L78.6469 156.623Z" fill="#E9631A"/>
<path d="M3.86505 65.4625C3.80855 66.2206 3.41304 66.7862 2.63708 66.8504C1.77449 66.922 1.16804 66.4167 1.1379 65.5455C1.10777 64.6819 1.65395 64.1313 2.53538 64.135C3.3377 64.135 3.74828 64.6706 3.86505 65.4625Z" fill="#E9661F"/>
<path d="M78.8007 2.70116C78.021 2.58425 77.5125 2.14678 77.5012 1.36235C77.4899 0.585465 77.9683 0.0235424 78.7442 0.000914684C79.6106 -0.0254844 80.1417 0.521353 80.1228 1.40761C80.104 2.21844 79.5541 2.59556 78.8007 2.70116Z" fill="#E96117"/>
<path d="M63.4479 4.33793C62.6455 4.14559 61.9826 3.87029 61.9863 2.92369C61.9863 2.07515 62.5664 1.68671 63.2784 1.63391C64.1409 1.5698 64.6758 2.09024 64.6796 2.97272C64.6796 3.77224 64.1372 4.14937 63.4516 4.33793H63.4479Z" fill="#E85F14"/>
<path d="M97.2014 2.12415C97.9962 2.30894 98.6064 2.63704 98.5913 3.48181C98.5725 4.41332 97.9284 4.83193 97.0921 4.80176C96.2861 4.77159 95.8604 4.21344 95.9056 3.40639C95.9508 2.58424 96.4857 2.21466 97.2014 2.12792V2.12415Z" fill="#E96015"/>
<path d="M36.5043 15.3916C35.5588 15.3162 35.039 14.792 35.0804 13.951C35.1181 13.2156 35.6228 12.6876 36.4365 12.7065C37.3292 12.7253 37.8377 13.2759 37.8 14.1245C37.7661 14.8787 37.2388 15.3275 36.5043 15.3916Z" fill="#E96219"/>
<path d="M32.5457 139.803C33.348 139.859 33.8151 140.274 33.8264 141.107C33.8339 141.914 33.4497 142.446 32.6097 142.469C31.7019 142.495 31.1708 141.979 31.1859 141.092C31.2009 140.293 31.7358 139.874 32.5457 139.806V139.803Z" fill="#E86015"/>
<path d="M121.772 145.075C121.071 144.977 120.491 144.566 120.495 143.792C120.495 142.929 121.09 142.435 121.964 142.461C122.8 142.484 123.219 143.087 123.188 143.823C123.154 144.562 122.687 145.086 121.776 145.078L121.772 145.075Z" fill="#F5BB9B"/>
<path d="M46.4897 148.114C47.2845 148.159 47.8194 148.544 47.8759 149.355C47.9324 150.151 47.5293 150.701 46.7044 150.777C45.7853 150.863 45.2316 150.32 45.2015 149.468C45.1713 148.702 45.6761 148.205 46.4897 148.11V148.114Z" fill="#E86015"/>
<path d="M4.78759 96.8587C4.77629 97.7865 4.36948 98.2843 3.58976 98.3559C2.72717 98.4314 2.14709 98.009 2.10565 97.1039C2.06422 96.1988 2.62923 95.7311 3.47676 95.7123C4.27908 95.6934 4.65952 96.2402 4.78759 96.8587Z" fill="#E86016"/>
<path d="M9.60228 110.824C9.44031 111.677 8.94686 112.197 8.09934 112.19C7.28948 112.182 6.82994 111.564 6.82617 110.862C6.82617 110.165 7.25182 109.55 8.08427 109.535C8.95063 109.516 9.43655 110.006 9.60228 110.824Z" fill="#E96118"/>
<path d="M135.096 134.036C135.073 134.982 134.549 135.277 133.747 135.261C133.028 135.246 132.515 134.96 132.508 134.183C132.5 133.312 132.99 132.701 133.845 132.712C134.606 132.72 135.013 133.327 135.099 134.036H135.096Z" fill="#FADBCA"/>
<path d="M51.8531 6.75176C51.6874 7.59653 51.2655 8.12074 50.4669 8.13206C49.5365 8.14714 49.1071 7.57013 49.1561 6.68011C49.2013 5.85797 49.6985 5.43935 50.5234 5.48084C51.3634 5.52232 51.661 6.12196 51.8531 6.75176Z" fill="#E85E13"/>
<path d="M111.293 7.03833C112.156 7.0421 112.683 7.53614 112.758 8.24892C112.845 9.08991 112.306 9.67069 111.436 9.70841C110.622 9.74235 110.182 9.23699 110.159 8.43371C110.137 7.63797 110.532 7.15524 111.293 7.0421V7.03833Z" fill="#E96116"/>
<path d="M12.6376 121.47C12.6715 120.671 13.067 120.15 13.8806 120.113C14.6528 120.079 15.2291 120.437 15.312 121.27C15.4061 122.21 14.8261 122.7 13.9898 122.753C13.1913 122.802 12.7543 122.259 12.6338 121.47H12.6376Z" fill="#E96116"/>
<path d="M1.34116 81.3138C0.474806 81.2497 -0.0111075 80.733 0.000192791 79.9976C0.0114931 79.1792 0.512474 78.5871 1.43533 78.6512C2.26026 78.7078 2.6407 79.2735 2.6068 80.0391C2.5729 80.8235 2.09452 81.2647 1.34116 81.3138Z" fill="#E96118"/>
<path d="M14.4725 37.1824C13.6928 37.1258 13.1579 36.7261 13.0938 35.9266C13.0298 35.1233 13.4856 34.5915 14.2879 34.5237C15.1769 34.4482 15.7532 34.8932 15.7683 35.8247C15.7833 36.6469 15.271 37.0617 14.4725 37.1824Z" fill="#E85F14"/>
<path d="M135.86 24.6315C135.77 25.6799 135.205 25.9213 134.425 25.8911C133.687 25.8609 133.22 25.4989 133.261 24.7409C133.307 23.8923 133.785 23.2738 134.663 23.3455C135.423 23.4096 135.774 24.0432 135.86 24.6315Z" fill="#FADDCD"/>
<path d="M108.864 151.109C108.8 151.976 108.39 152.5 107.606 152.527C106.751 152.557 106.156 152.025 106.145 151.192C106.133 150.343 106.736 149.86 107.602 149.875C108.427 149.89 108.778 150.426 108.864 151.105V151.109Z" fill="#E85F15"/>
<path d="M23.6598 131.966C23.4903 132.716 23.0873 133.297 22.3113 133.304C21.4412 133.312 20.944 132.769 20.9892 131.871C21.0306 131.042 21.5542 130.638 22.3339 130.664C23.1362 130.691 23.4941 131.26 23.656 131.969L23.6598 131.966Z" fill="#E85F14"/>
<path d="M24.5597 24.8615C23.8516 24.7031 23.2301 24.3901 23.2414 23.5491C23.2527 22.6252 23.9043 22.1952 24.7292 22.2141C25.5316 22.233 25.961 22.81 25.9308 23.6057C25.9007 24.4278 25.3847 24.8201 24.5597 24.8615Z" fill="#E85F14"/>
<path d="M8.22305 49.9261C8.21175 50.7105 7.83131 51.2309 7.00639 51.2309C6.12496 51.2309 5.57501 50.6652 5.61645 49.8318C5.65411 49.1115 6.18146 48.5646 6.98379 48.5835C7.78234 48.6023 8.21175 49.0813 8.22305 49.9223V49.9261Z" fill="#E86016"/>
<path d="M94.7985 155.174C94.6591 155.959 94.2787 156.536 93.499 156.581C92.723 156.63 92.2032 156.189 92.1429 155.37C92.0751 154.461 92.5648 153.911 93.4349 153.899C94.2184 153.888 94.5989 154.495 94.8023 155.174H94.7985Z" fill="#E96219"/>
<path d="M123.347 16.4246C122.552 16.353 122.051 15.9306 121.942 15.1839C121.825 14.3768 122.251 13.8715 123.068 13.8338C123.844 13.7998 124.39 14.2486 124.488 14.9953C124.594 15.7911 124.029 16.1946 123.343 16.4209L123.347 16.4246Z" fill="#F5BFA0"/>
<path d="M62.3812 154.5C62.2004 155.205 61.8162 155.756 61.029 155.763C60.2417 155.774 59.7596 155.341 59.7445 154.511C59.7294 153.617 60.2003 153.074 61.0817 153.123C61.8426 153.165 62.2343 153.749 62.385 154.5H62.3812Z" fill="#E85F14"/>
</svg>
